<svg xmlns="http://www.w3.org/2000/svg" viewBox="-100 -100 200 200" width="200" height="200" role="img" aria-labelledby="t d"><title id="t">Business Web Group mark</title><desc id="d">Business Web Group logo, approved 2026-09-27.</desc><defs><filter id="bmblur" x="-50%" y="-50%" width="200%" height="200%"><feGaussianBlur stdDeviation="9"/></filter><filter id="bmsoft" x="-20%" y="-20%" width="140%" height="140%"><feGaussianBlur stdDeviation="2.2"/></filter><filter id="bmsh" x="-30%" y="-30%" width="160%" height="160%"><feDropShadow dx="1.4" dy="3" stdDeviation="2.2" flood-color="#0B1B40" flood-opacity=".6"/></filter><linearGradient id="bmink" x1="-20" y1="-50" x2="20" y2="50" gradientUnits="userSpaceOnUse"><stop offset="0" stop-color="#FFFFFF"/><stop offset=".6" stop-color="#F1F7FF"/><stop offset="1" stop-color="#C9E0FF"/></linearGradient><linearGradient id="bmrim" x1="-40" y1="-40" x2="70" y2="90" gradientUnits="userSpaceOnUse"><stop offset=".45" stop-color="#48C8F6" stop-opacity="0"/><stop offset="1" stop-color="#9BE6FF" stop-opacity="1"/></linearGradient><linearGradient id="bmlip" x1="-60" y1="-95" x2="30" y2="10" gradientUnits="userSpaceOnUse"><stop offset="0" stop-color="#FFFFFF" stop-opacity=".95"/><stop offset="1" stop-color="#FFFFFF" stop-opacity="0"/></linearGradient><clipPath id="bmclip"><path d="M12.99,-92.5L73.61,-57.5Q86.6,-50 86.6,-35L86.6,35Q86.6,50 73.61,57.5L12.99,92.5Q0,100 -12.99,92.5L-73.61,57.5Q-86.6,50 -86.6,35L-86.6,-35Q-86.6,-50 -73.61,-57.5L-12.99,-92.5Q0,-100 12.99,-92.5Z"/></clipPath><radialGradient id="bmb" cx="-46" cy="-60" r="205" gradientUnits="userSpaceOnUse"><stop offset="0" stop-color="#C4F1FF"/><stop offset=".13" stop-color="#7FCBFF"/><stop offset=".36" stop-color="#3A7CF6"/><stop offset=".6" stop-color="#2456E8"/><stop offset=".82" stop-color="#1A3BA6"/><stop offset="1" stop-color="#0B1B40"/></radialGradient><radialGradient id="bmt" cx="-34" cy="-44" r="130" gradientUnits="userSpaceOnUse"><stop offset="0" stop-color="#6FB4FF"/><stop offset=".35" stop-color="#3A7CF6"/><stop offset=".75" stop-color="#2456E8"/><stop offset="1" stop-color="#1A3BA6"/></radialGradient><linearGradient id="bmch" x1="-30" y1="-50" x2="30" y2="50" gradientUnits="userSpaceOnUse"><stop offset="0" stop-color="#0B1B40"/><stop offset="1" stop-color="#132A66"/></linearGradient><linearGradient id="bmridge" x1="-60" y1="-60" x2="60" y2="60" gradientUnits="userSpaceOnUse"><stop offset="0" stop-color="#FFFFFF" stop-opacity=".95"/><stop offset=".5" stop-color="#FFFFFF" stop-opacity=".15"/><stop offset="1" stop-color="#9BE6FF" stop-opacity=".7"/></linearGradient><linearGradient id="bmf0" x1="47.63" y1="-82.5" x2="30.31" y2="-52.5" gradientUnits="userSpaceOnUse"><stop offset="0" stop-color="#306FF3"/><stop offset="1" stop-color="#63AFFF"/></linearGradient><linearGradient id="bmf1" x1="95.26" y1="0" x2="60.62" y2="0" gradientUnits="userSpaceOnUse"><stop offset="0" stop-color="#1A3DB5"/><stop offset="1" stop-color="#285DEB"/></linearGradient><linearGradient id="bmf2" x1="47.63" y1="82.5" x2="30.31" y2="52.5" gradientUnits="userSpaceOnUse"><stop offset="0" stop-color="#153193"/><stop offset="1" stop-color="#1F4BD1"/></linearGradient><linearGradient id="bmf3" x1="-47.63" y1="82.5" x2="-30.31" y2="52.5" gradientUnits="userSpaceOnUse"><stop offset="0" stop-color="#1D46C7"/><stop offset="1" stop-color="#2F6CF2"/></linearGradient><linearGradient id="bmf4" x1="-95.26" y1="0" x2="-60.62" y2="0" gradientUnits="userSpaceOnUse"><stop offset="0" stop-color="#387EF9"/><stop offset="1" stop-color="#7DC9FF"/></linearGradient><linearGradient id="bmf5" x1="-47.63" y1="-82.5" x2="-30.31" y2="-52.5" gradientUnits="userSpaceOnUse"><stop offset="0" stop-color="#54A1FF"/><stop offset="1" stop-color="#9BE6FF"/></linearGradient><filter id="bmfb" x="-20%" y="-20%" width="140%" height="140%"><feGaussianBlur stdDeviation="3.2"/></filter><filter id="bmfb2" x="-20%" y="-20%" width="140%" height="140%"><feGaussianBlur stdDeviation="6"/></filter><filter id="bmrb" x="-20%" y="-20%" width="140%" height="140%"><feGaussianBlur stdDeviation="1.1"/></filter></defs><path d="M12.99,-92.5L73.61,-57.5Q86.6,-50 86.6,-35L86.6,35Q86.6,50 73.61,57.5L12.99,92.5Q0,100 -12.99,92.5L-73.61,57.5Q-86.6,50 -86.6,35L-86.6,-35Q-86.6,-50 -73.61,-57.5L-12.99,-92.5Q0,-100 12.99,-92.5Z" fill="url(#bmb)"/><g clip-path="url(#bmclip)"><g filter="url(#bmfb2)" opacity="0.45"><path d="M0,-114L98.73,-57L67.55,-39L0,-78Z" fill="url(#bmf0)"/><path d="M98.73,-57L98.73,57L67.55,39L67.55,-39Z" fill="url(#bmf1)"/><path d="M98.73,57L0,114L0,78L67.55,39Z" fill="url(#bmf2)"/><path d="M0,114L-98.73,57L-67.55,39L0,78Z" fill="url(#bmf3)"/><path d="M-98.73,57L-98.73,-57L-67.55,-39L-67.55,39Z" fill="url(#bmf4)"/><path d="M-98.73,-57L0,-114L0,-78L-67.55,-39Z" fill="url(#bmf5)"/></g></g><path d="M13.86,-70L53.69,-47Q67.55,-39 67.55,-23L67.55,23Q67.55,39 53.69,47L13.86,70Q0,78 -13.86,70L-53.69,47Q-67.55,39 -67.55,23L-67.55,-23Q-67.55,-39 -53.69,-47L-13.86,-70Q0,-78 13.86,-70Z" fill="url(#bmb)" opacity=".5" filter="url(#bmfb)"/><path d="M13.86,-70L53.69,-47Q67.55,-39 67.55,-23L67.55,23Q67.55,39 53.69,47L13.86,70Q0,78 -13.86,70L-53.69,47Q-67.55,39 -67.55,23L-67.55,-23Q-67.55,-39 -53.69,-47L-13.86,-70Q0,-78 13.86,-70Z" fill="none" stroke="url(#bmridge)" stroke-width="1.6" opacity=".55" filter="url(#bmrb)"/><g clip-path="url(#bmclip)"><path d="M12.99,-92.5L73.61,-57.5Q86.6,-50 86.6,-35L86.6,35Q86.6,50 73.61,57.5L12.99,92.5Q0,100 -12.99,92.5L-73.61,57.5Q-86.6,50 -86.6,35L-86.6,-35Q-86.6,-50 -73.61,-57.5L-12.99,-92.5Q0,-100 12.99,-92.5Z" fill="none" stroke="#0B1B40" stroke-width="22" opacity=".42" filter="url(#bmblur)"/><ellipse cx="-44" cy="-58" rx="34" ry="16" transform="rotate(-30 -44 -58)" fill="#FFFFFF" opacity=".62" filter="url(#bmblur)"/><ellipse cx="-46" cy="-60" rx="12" ry="6" transform="rotate(-30 -46 -60)" fill="#FFFFFF" opacity=".55" filter="url(#bmsoft)"/><path d="M12.99,-92.5L73.61,-57.5Q86.6,-50 86.6,-35L86.6,35Q86.6,50 73.61,57.5L12.99,92.5Q0,100 -12.99,92.5L-73.61,57.5Q-86.6,50 -86.6,35L-86.6,-35Q-86.6,-50 -73.61,-57.5L-12.99,-92.5Q0,-100 12.99,-92.5Z" fill="none" stroke="url(#bmrim)" stroke-width="8" filter="url(#bmsoft)"/><path d="M12.99,-92.5L73.61,-57.5Q86.6,-50 86.6,-35L86.6,35Q86.6,50 73.61,57.5L12.99,92.5Q0,100 -12.99,92.5L-73.61,57.5Q-86.6,50 -86.6,35L-86.6,-35Q-86.6,-50 -73.61,-57.5L-12.99,-92.5Q0,-100 12.99,-92.5Z" fill="none" stroke="url(#bmlip)" stroke-width="2.4"/></g><g clip-path="url(#bmclip)"><path d="M12.99,-92.5L73.61,-57.5Q86.6,-50 86.6,-35L86.6,35Q86.6,50 73.61,57.5L12.99,92.5Q0,100 -12.99,92.5L-73.61,57.5Q-86.6,50 -86.6,35L-86.6,-35Q-86.6,-50 -73.61,-57.5L-12.99,-92.5Q0,-100 12.99,-92.5Z" fill="none" stroke="url(#bmrim)" stroke-width="16" filter="url(#bmsoft)"/><path d="M12.99,-92.5L73.61,-57.5Q86.6,-50 86.6,-35L86.6,35Q86.6,50 73.61,57.5L12.99,92.5Q0,100 -12.99,92.5L-73.61,57.5Q-86.6,50 -86.6,35L-86.6,-35Q-86.6,-50 -73.61,-57.5L-12.99,-92.5Q0,-100 12.99,-92.5Z" fill="none" stroke="url(#bmrim)" stroke-width="3.2"/></g><g transform="translate(1 0) scale(0.9)" fill="url(#bmink)" stroke="url(#bmink)" stroke-width="2.8" stroke-linejoin="round" filter="url(#bmsh)"><path d="M-37.29 50V-50H2.71Q13.4 -50 20 -45.73Q26.6 -41.46 29.65 -35Q32.71 -28.54 32.71 -21.94Q32.71 -13.54 28.92 -7.99Q25.14 -2.43 18.54 -0.56V-4.03Q27.92 -2.08 32.6 4.65Q37.29 11.39 37.29 19.72Q37.29 28.68 33.99 35.49Q30.69 42.29 23.96 46.15Q17.22 50 7.01 50ZM-18.13 32.22H5.07Q8.89 32.22 11.87 30.59Q14.86 28.96 16.56 26.01Q18.26 23.06 18.26 19.03Q18.26 15.49 16.81 12.71Q15.35 9.93 12.4 8.3Q9.44 6.67 5.07 6.67H-18.13ZM-18.13 -10.97H2.43Q5.62 -10.97 8.12 -12.08Q10.62 -13.19 12.08 -15.52Q13.54 -17.85 13.54 -21.53Q13.54 -26.11 10.69 -29.24Q7.85 -32.36 2.43 -32.36H-18.13Z"/></g></svg>
